<?xml version="1.0" encoding="UTF-8"?>
<svg version="1.1" xmlns="http://www.w3.org/2000/svg" width="2048" height="2048">
<path d="M0 0 C39.27 0 78.54 0 119 0 C119 196.02 119 392.04 119 594 C79.73 594 40.46 594 0 594 C0 397.98 0 201.96 0 0 Z " fill="#009FE3" transform="translate(717,379)"/>
<path d="M0 0 C39.27 0 78.54 0 119 0 C119 161.04 119 322.08 119 488 C79.73 488 40.46 488 0 488 C-1.74696273 486.25303727 -1.12459267 483.97181186 -1.13293558 481.6436398 C-1.13059442 480.86684078 -1.12825325 480.09004176 -1.12584114 479.28970337 C-1.12729458 478.46829951 -1.12874802 477.64689565 -1.13024551 476.80060077 C-1.13393258 474.01239422 -1.13040665 471.22424142 -1.12698364 468.43603516 C-1.12813439 466.43123153 -1.12972161 464.42642811 -1.13171089 462.42162514 C-1.13591053 456.88464456 -1.13381067 451.34768108 -1.13072467 445.81070042 C-1.12847335 439.85017845 -1.13194883 433.88965955 -1.13470459 427.92913818 C-1.13890603 416.9179928 -1.13852534 405.90685254 -1.13579312 394.89570695 C-1.13328171 384.72500603 -1.13261893 374.55430712 -1.13381577 364.38360596 C-1.13389215 363.71005529 -1.13396854 363.03650462 -1.13404724 362.34254332 C-1.13435855 359.60866948 -1.13467695 356.87479564 -1.135007 354.14092181 C-1.13806888 328.47316269 -1.13528797 302.80540707 -1.1299101 277.13764849 C-1.12516418 254.31246691 -1.12558879 231.48729091 -1.13037109 208.66210938 C-1.13572087 183.04255017 -1.13785177 157.42299406 -1.13475883 131.80343437 C-1.13443809 129.07442093 -1.13412525 126.34540749 -1.13381577 123.61639404 C-1.13373669 122.94439683 -1.13365761 122.27239962 -1.13357614 121.58003886 C-1.13243666 111.41348616 -1.13377267 101.24693569 -1.13629532 91.0803833 C-1.13914811 79.52540974 -1.13835684 67.97044245 -1.13301457 56.41546965 C-1.13037642 50.51370844 -1.12937441 44.61195859 -1.13266373 38.71019745 C-1.13562436 33.31681111 -1.1340378 27.92344675 -1.12868617 22.53006244 C-1.12756098 20.56979162 -1.12815539 18.60951898 -1.13056196 16.64924932 C-1.13356378 14.00290463 -1.13052373 11.35663715 -1.12584114 8.71029663 C-1.12818231 7.93349761 -1.13052347 7.15669858 -1.13293558 6.3563602 C-1.11415034 1.11415034 -1.11415034 1.11415034 0 0 Z " fill="#C7D301" transform="translate(872,379)"/>
<path d="M0 0 C0.70326416 0.00054382 1.40652832 0.00108765 2.13110352 0.00164795 C32.75881807 0.11022606 60.06316857 9.87025904 82.1875 31.5625 C115.82967676 65.61761682 124.40044326 116.36383459 125.5625 162.375 C125.60697266 163.95861328 125.60697266 163.95861328 125.65234375 165.57421875 C125.69007813 168.51330794 125.64248057 171.43658326 125.5625 174.375 C125.53567139 175.4880249 125.53567139 175.4880249 125.50830078 176.62353516 C124.41984928 217.64306152 117.41483825 262.09971315 91.5625 295.375 C91.14774414 295.91318359 90.73298828 296.45136719 90.30566406 297.00585938 C72.36860372 320.03116031 47.76131776 333.43251538 18.9921875 337.93359375 C-12.39567624 341.6356948 -45.27610822 335.81050061 -70.48828125 315.9296875 C-78.13763522 309.30362459 -85.68990401 302.2535213 -91.2890625 293.765625 C-92.48794272 292.0636735 -92.48794272 292.0636735 -95.4375 291.375 C-94.9425 292.86 -94.9425 292.86 -94.4375 294.375 C-89.33656976 329.17135874 -91.07886739 365.07380009 -91.22141922 400.13780332 C-91.25556337 408.68981858 -91.27160009 417.24184284 -91.28652918 425.79390979 C-91.31751053 443.32103333 -91.37230771 460.84796802 -91.4375 478.375 C-109.5875 478.375 -127.7375 478.375 -146.4375 478.375 C-146.4375 322.615 -146.4375 166.855 -146.4375 6.375 C-131.5875 6.375 -116.7375 6.375 -101.4375 6.375 C-100.2825 12.7275 -99.1275 19.08 -97.9375 25.625 C-97.57205078 27.6246582 -97.20660156 29.62431641 -96.83007812 31.68457031 C-96.54269167 33.27403847 -96.2555647 34.86355357 -95.96875 36.453125 C-95.81760742 37.27474121 -95.66646484 38.09635742 -95.51074219 38.94287109 C-95.36862305 39.73419434 -95.22650391 40.52551758 -95.08007812 41.34082031 C-94.95572388 42.02476868 -94.83136963 42.70871704 -94.70324707 43.41339111 C-94.4375 45.375 -94.4375 45.375 -94.4375 49.375 C-91.13163749 46.16128697 -88.1580677 42.87458244 -85.3125 39.25 C-76.44881097 28.3857749 -67.50075451 20.33247523 -55.4375 13.375 C-54.46039063 12.80910156 -53.48328125 12.24320313 -52.4765625 11.66015625 C-36.28708375 2.94445056 -18.19240881 -0.05300319 0 0 Z M-68.4375 67.375 C-87.58281417 89.88524817 -91.51462797 123.41098867 -91.640625 151.83984375 C-91.64763931 152.90332031 -91.65465363 153.96679688 -91.66188049 155.0625 C-91.67929839 158.47921015 -91.68573318 161.89574708 -91.6875 165.3125 C-91.68817474 166.47806427 -91.68884949 167.64362854 -91.68954468 168.84451294 C-91.65663222 204.58898316 -90.70246875 245.75154918 -64.875 273.5625 C-47.69299274 289.98724554 -25.83693863 293.02060098 -3.01953125 292.69140625 C14.08220114 292.11172762 28.35661699 285.416272 40.5 273.46875 C49.13329765 264.06462221 54.29517122 253.25633816 58.5625 241.375 C58.93246094 240.36050781 59.30242187 239.34601563 59.68359375 238.30078125 C75.37320336 191.5982468 74.22250083 128.09951963 54.0234375 82.93359375 C50.88519366 76.90044584 46.9879738 71.52660475 42.5625 66.375 C42.05332031 65.77042969 41.54414063 65.16585938 41.01953125 64.54296875 C28.50059544 50.84941674 10.68771564 46.41364142 -7.16796875 45.1875 C-29.86110112 44.63819574 -52.43161273 50.51802781 -68.4375 67.375 Z " fill="#686868" transform="translate(344.4375,1264.625)"/>
<path d="M0 0 C0.72733337 0.00182281 1.45466675 0.00364563 2.20404053 0.00552368 C35.38430252 0.14547285 65.7284095 10.89370443 89.42089844 34.77636719 C97.79266748 43.6204187 104.29053547 53.53567164 109.875 64.3125 C110.78378906 66.05080078 110.78378906 66.05080078 111.7109375 67.82421875 C129.37668534 102.88805159 127.875 141.94901242 127.875 180.3125 C59.895 180.3125 -8.085 180.3125 -78.125 180.3125 C-73.40883124 226.29737288 -73.40883124 226.29737288 -51.125 265.3125 C-51.125 265.9725 -51.125 266.6325 -51.125 267.3125 C-50.52945312 267.58578125 -49.93390625 267.8590625 -49.3203125 268.140625 C-47.19852802 269.27325016 -45.74753164 270.42912872 -44 272.0625 C-22.25737433 290.84229408 7.93477417 290.72851634 35.06640625 289.03515625 C59.01452062 287.10280157 81.87916368 280.50961273 103.77270508 270.85229492 C104.52704834 270.52205322 105.2813916 270.19181152 106.05859375 269.8515625 C106.72431396 269.55459473 107.39003418 269.25762695 108.07592773 268.95166016 C109.875 268.3125 109.875 268.3125 112.875 268.3125 C112.875 284.4825 112.875 300.6525 112.875 317.3125 C70.84193389 335.39649356 22.53064352 346.07060838 -23.125 335.3125 C-24.36612549 335.03043701 -24.36612549 335.03043701 -25.63232422 334.74267578 C-49.50058248 329.1378933 -70.41682644 318.28869819 -88.125 301.3125 C-89.00800781 300.50425781 -89.89101562 299.69601562 -90.80078125 298.86328125 C-122.79982523 268.58412931 -133.51522149 222.25573854 -134.984375 179.77490234 C-136.14686628 132.67220859 -127.93620185 80.11272575 -96.125 43.3125 C-95.70283203 42.80960449 -95.28066406 42.30670898 -94.84570312 41.78857422 C-77.70927987 21.43746103 -54.18349321 7.77832479 -28.125 2.3125 C-27.27856934 2.13372314 -26.43213867 1.95494629 -25.56005859 1.77075195 C-17.0510974 0.15599135 -8.62998962 -0.04483654 0 0 Z M-54.125 68.3125 C-65.79959658 82.10573793 -71.71030093 99.67427985 -74.9375 117.1875 C-75.1236084 118.18487183 -75.1236084 118.18487183 -75.31347656 119.20239258 C-76.24255448 124.75150913 -76.125 129.49536247 -76.125 135.3125 C-28.605 135.3125 18.915 135.3125 67.875 135.3125 C68.06889287 121.84084589 68.06889287 121.84084589 66.6875 108.6875 C66.5544043 107.90101074 66.42130859 107.11452148 66.28417969 106.30419922 C63.16380389 89.05138314 56.46231673 73.71902941 43.875 61.3125 C43.03001953 60.45205078 43.03001953 60.45205078 42.16796875 59.57421875 C31.97520606 49.97665388 17.54677531 46.11672208 3.875 45.3125 C3.194375 45.27125 2.51375 45.23 1.8125 45.1875 C-20.11291863 44.54263475 -39.12740491 52.62634962 -54.125 68.3125 Z " fill="#009FE3" transform="translate(1173.125,1264.6875)"/>
<path d="M0 0 C18.81 0 37.62 0 57 0 C61.49931823 10.12346602 61.49931823 10.12346602 62.74487305 13.75805664 C63.03073776 14.5853981 63.31660248 15.41273956 63.61112976 16.26515198 C63.90832413 17.13800339 64.20551849 18.0108548 64.51171875 18.91015625 C64.83690994 19.85378525 65.16210114 20.79741425 65.49714661 21.76963806 C66.19766362 23.80313338 66.89648034 25.83721508 67.59375 27.87182617 C69.48456287 33.38768183 71.38903258 38.89881936 73.29296875 44.41015625 C73.68447113 45.54417877 74.07597351 46.67820129 74.4793396 47.84658813 C78.42279322 59.25367882 82.45557337 70.62840475 86.5 82 C93.02606877 100.3622073 99.45405575 118.75671772 105.82275391 137.17407227 C109.12320056 146.71670327 112.43245413 156.25567336 115.79296875 165.77734375 C135.03822393 220.31322609 135.03822393 220.31322609 141.5 246 C141.81437012 247.24458984 142.12874023 248.48917969 142.45263672 249.77148438 C144.80298969 259.44077211 146.46350389 269.17317873 148 279 C148.27038086 277.906875 148.54076172 276.81375 148.81933594 275.6875 C164.74335781 211.52143958 186.09316144 149.02624431 206.72973633 86.25973511 C213.25264986 66.41909745 219.66641722 46.54544833 225.97851562 26.63671875 C226.28930054 25.65913605 226.60008545 24.68155334 226.92028809 23.67434692 C227.48812375 21.88776997 228.05416054 20.10061953 228.61779785 18.31271362 C230.5838384 12.13133445 232.77782331 6.1109859 235 0 C253.81 0 272.62 0 292 0 C288.62519486 12.3742855 288.62519486 12.3742855 287.08081055 16.75683594 C286.73072433 17.75644348 286.38063812 18.75605103 286.01994324 19.78594971 C285.64597916 20.84143005 285.27201508 21.8969104 284.88671875 22.984375 C284.28413994 24.70028839 284.28413994 24.70028839 283.66938782 26.4508667 C282.57462092 29.56650391 281.47655374 32.68095402 280.37713623 35.79495239 C279.20352452 39.12202058 278.03448551 42.45069424 276.86523438 45.77929688 C275.39711675 49.95810003 273.92876246 54.13681854 272.45870972 58.31494141 C267.73887312 71.73053008 263.04997675 85.1568417 258.36584473 98.58493042 C256.06946546 105.16776868 253.7710836 111.74990786 251.47265625 118.33203125 C251.24520092 118.98343142 251.01774559 119.63483158 250.78339767 120.30597115 C245.67489746 134.93552752 240.55735697 149.56191424 235.4375 164.1875 C234.78997269 166.03726944 234.78997269 166.03726944 234.12936401 167.92440796 C230.65260762 177.85603825 227.17525568 187.78746 223.69787598 197.71887207 C220.65246926 206.41664955 217.60733245 215.11452147 214.5625 223.8125 C214.13122803 225.04444092 213.69995605 226.27638184 213.25561523 227.5456543 C207.86480387 242.9455295 202.47982864 258.34742286 197.10351562 273.75236511 C196.64030171 275.07962114 196.17708557 276.40687639 195.71386719 277.73413086 C195.48449211 278.3913573 195.25511703 279.04858374 195.0187912 279.72572613 C193.40853801 284.33912007 191.7969002 288.95202874 190.18457031 293.56469727 C189.49930074 295.52534057 188.81404914 297.48599015 188.1288147 299.44664574 C187.67353335 300.74933771 187.21823146 302.05202251 186.76290894 303.35470009 C184.02782533 311.18066242 181.30026949 319.00917478 178.58416271 326.84174442 C176.58714607 332.60025468 174.58346253 338.35642595 172.57791138 344.11196899 C171.75524986 346.4771035 170.93502567 348.84308767 170.11764526 351.21005249 C162.39399993 373.57069217 154.43172603 396.21814581 143 417 C142.66323242 417.62229492 142.32646484 418.24458984 141.97949219 418.88574219 C130.04975172 440.69219801 111.50602246 460.2281752 87.07861328 467.578125 C74.94618859 470.95887125 63.26096461 472.26440604 50.6875 472.3125 C49.96488983 472.31611542 49.24227966 472.31973083 48.49777222 472.32345581 C15.77777177 472.38888588 15.77777177 472.38888588 5 467 C5 452.48 5 437.96 5 423 C9.125 423.495 13.25 423.99 17.5 424.5 C40.35044839 427.0783491 63.17314556 427.98771875 82.63598633 413.80810547 C90.67325611 407.35552476 95.89299055 398.81411506 100.22265625 389.6171875 C100.79830826 388.39548859 100.79830826 388.39548859 101.3855896 387.14910889 C105.84108535 377.4681352 109.46133879 367.48967102 112.99707031 357.44335938 C114.14081173 354.20523432 115.31186542 350.97780416 116.484375 347.75 C117.22300683 345.67246183 117.9600471 343.59435697 118.6953125 341.515625 C119.04409454 340.56141663 119.39287659 339.60720825 119.75222778 338.62408447 C122.41474317 330.9357796 121.84901283 325.7054005 118.97265625 318.0859375 C118.5245459 316.88815674 118.07643555 315.69037598 117.61474609 314.45629883 C117.09740499 313.09583764 116.57998574 311.73540617 116.0625 310.375 C115.49758556 308.87352567 114.93332668 307.37180457 114.36962891 305.86987305 C113.0415981 302.33624434 111.70856388 298.80454707 110.37255859 295.27392578 C107.92919125 288.81611148 105.49525586 282.35475484 103.06215286 275.89306831 C101.76169999 272.43945567 100.46096168 268.98595056 99.16015625 265.5324707 C98.75959739 264.46902955 98.75959739 264.46902955 98.35094643 263.38410473 C96.39658787 258.19597845 94.44076363 253.00840598 92.484375 247.82104492 C84.48822687 226.61816231 76.51599379 205.40641829 68.5625 184.1875 C68.14562361 183.07536825 68.14562361 183.07536825 67.72032547 181.9407692 C65.1804298 175.16485504 62.64079824 168.38884193 60.10154724 161.61268616 C56.11597141 150.97694331 52.12885012 140.34178093 48.140625 129.70703125 C47.85760025 128.95232355 47.5745755 128.19761585 47.28297424 127.42003822 C44.45496887 119.87896119 41.62680235 112.33794462 38.79843903 104.79700184 C37.4124501 101.10166615 36.02652299 97.40630729 34.640625 93.7109375 C34.36781204 92.98351538 34.09499908 92.25609325 33.81391907 91.50662804 C30.14749024 81.73024928 26.48362722 71.95291268 22.82197571 62.17474365 C20.86738332 56.95515433 18.91209823 51.73582457 16.95666027 46.51655197 C15.38861974 42.3310717 13.82153516 38.14523523 12.25520134 33.95911598 C11.52534851 32.00907638 10.79498402 30.05922935 10.06439209 28.10946655 C9.18312744 25.75759275 8.30264696 23.40542489 7.42315674 21.05288696 C5.27065013 15.31259435 3.05994145 9.60798799 0.71006775 3.94528198 C0 2 0 2 0 0 Z " fill="#686868" transform="translate(505,1271)"/>
<path d="M0 0 C39.6 0 79.2 0 120 0 C120 107.58 120 215.16 120 326 C80.4 326 40.8 326 0 326 C0 218.42 0 110.84 0 0 Z " fill="#F07D16" transform="translate(1024,379)"/>
<path d="M0 0 C1.0073556 -0.00205263 2.0147112 -0.00410527 3.05259272 -0.0062201 C6.44935422 -0.01190284 9.84607534 -0.01043128 13.24284077 -0.00901413 C15.69428581 -0.01159703 18.14573043 -0.01460998 20.59717447 -0.01801753 C26.64162196 -0.02525118 32.6860558 -0.02779058 38.73050629 -0.02834659 C45.96949489 -0.02926024 53.20847532 -0.0359278 60.44746041 -0.04269341 C77.94389987 -0.05875537 95.44033846 -0.06465682 112.93678397 -0.06944216 C121.21294048 -0.07177781 129.48909629 -0.07538042 137.76525226 -0.07913754 C166.09283185 -0.09197293 194.42041104 -0.10269235 222.74799347 -0.10614014 C224.52631415 -0.10636177 226.30463482 -0.10658355 228.0829555 -0.10680549 C229.86558071 -0.10702613 231.64820592 -0.10724661 233.43083113 -0.10746694 C237.00710913 -0.10790949 240.58338712 -0.1083566 244.15966511 -0.10880661 C245.04637449 -0.108916 245.93308387 -0.10902539 246.84666323 -0.1091381 C275.60193842 -0.11276919 304.35718841 -0.12869128 333.11245394 -0.15199697 C363.51104298 -0.17658954 393.9096176 -0.1903127 424.30821687 -0.19150805 C427.64480611 -0.19167951 430.98139535 -0.19189494 434.31798458 -0.19214249 C435.55033629 -0.19222614 435.55033629 -0.19222614 436.80758399 -0.19231148 C450.03222207 -0.1934624 463.2568343 -0.2044878 476.48146365 -0.21902954 C489.7722971 -0.23339145 503.06309738 -0.23663325 516.35393646 -0.22858956 C524.25034527 -0.22413194 532.14664708 -0.22799922 540.04304185 -0.24382807 C545.93870892 -0.25472078 551.8342955 -0.24994128 557.72996489 -0.2390562 C560.11557795 -0.23709196 562.50120168 -0.24021098 564.88679972 -0.24890056 C568.12855603 -0.25996201 571.36977002 -0.25252592 574.61151123 -0.24050903 C575.53839739 -0.24810423 576.46528356 -0.25569942 577.42025718 -0.26352477 C586.92678441 -0.18741268 595.59751029 1.94161565 602.67504597 8.59236526 C608.31307402 14.56699201 611.29325766 21.46829395 611.55785847 29.69392776 C611.21612813 37.77015484 608.81607351 45.23833646 603.12035847 51.13142776 C594.81850073 57.90399592 587.37015221 59.4343445 576.91653442 59.38869667 C575.89842927 59.39220275 574.88032411 59.39570882 573.83136728 59.39932114 C570.4100399 59.40864625 566.98888232 59.40370888 563.5675478 59.3988533 C561.09375171 59.40258899 558.61995679 59.40719018 556.14616376 59.41258395 C550.76251264 59.42227835 545.37891105 59.42572758 539.99525547 59.42367172 C531.98944304 59.42062201 523.98367041 59.42894504 515.97786571 59.43942097 C500.84762024 59.45876632 485.71738832 59.46438939 470.58713194 59.46553509 C458.90355191 59.46645402 447.21997719 59.47056991 435.53639889 59.47693634 C432.17382235 59.47873141 428.8112458 59.48051104 425.44866925 59.4822861 C424.61273457 59.48272819 423.7767999 59.48317029 422.91553386 59.48362578 C399.4012576 59.49593471 375.88698318 59.50382685 352.37270355 59.50293922 C351.48610169 59.50290807 350.59949983 59.50287691 349.68603125 59.50284481 C345.19231709 59.50267859 340.69860294 59.50248051 336.20488878 59.50227539 C335.31241334 59.5022355 334.41993789 59.50219561 333.50041773 59.50215451 C331.69561504 59.50207364 329.89081235 59.50199004 328.08600966 59.50190373 C300.00328166 59.50067809 271.92060195 59.51569353 243.83788776 59.54304886 C212.29069462 59.57376623 180.74353321 59.59098158 149.19632417 59.58912241 C145.83280456 59.58897315 142.46928495 59.58887574 139.10576534 59.58881378 C138.27757479 59.58879047 137.44938423 59.58876716 136.59609699 59.58874315 C123.26556126 59.58868159 109.93506743 59.6014559 96.60454415 59.61867831 C83.20864562 59.63562732 69.81280844 59.63761436 56.41690513 59.62445967 C48.45824777 59.61706577 40.49977671 59.62074153 32.54113907 59.64034435 C26.59921574 59.6537435 20.6574384 59.64624552 14.71551649 59.6305979 C12.31112105 59.62751553 9.90670552 59.63120666 7.50233378 59.64231806 C4.23512658 59.65641811 0.96888042 59.64586828 -2.29829407 59.6292057 C-3.23263026 59.63914206 -4.16696646 59.64907842 -5.12961587 59.65931588 C-13.89577774 59.56474343 -21.84255148 56.94957526 -28.34448528 50.90877151 C-34.77273507 43.46639581 -36.2672952 36.10753877 -36.14917278 26.51814651 C-35.49141983 18.25333765 -32.1417105 12.40388418 -26.09839153 6.82283401 C-18.09115064 0.71872256 -9.72678939 -0.01833733 0 0 Z " fill="#686868" transform="translate(718.879641532898,290.8685722351074)"/>
<path d="M0 0 C1.36955841 0.00506058 1.36955841 0.00506058 2.76678467 0.01022339 C31.91123907 0.16549367 58.20881275 6.10040919 85.375 16.625 C86.46627197 17.04088379 87.55754395 17.45676758 88.68188477 17.88525391 C89.68276123 18.2879248 90.6836377 18.6905957 91.71484375 19.10546875 C92.60421631 19.45891357 93.49358887 19.8123584 94.40991211 20.17651367 C96.4375 21.4375 96.4375 21.4375 97.16040039 23.2469635 C97.50067354 25.93690147 96.97988697 27.27148295 95.89868164 29.74707031 C95.53823257 30.58763977 95.17778351 31.42820923 94.80641174 32.29425049 C94.40752243 33.19230408 94.00863312 34.09035767 93.59765625 35.015625 C92.99624062 36.40548615 92.99624062 36.40548615 92.38267517 37.82342529 C91.09913153 40.78289839 89.79981485 43.73514225 88.5 46.6875 C87.62720782 48.69225267 86.75544999 50.69745599 85.88476562 52.703125 C83.74765349 57.61987633 81.59754904 62.53078562 79.4375 67.4375 C69.99191179 64.34880863 69.99191179 64.34880863 66.02734375 62.640625 C56.80085673 58.75860437 47.54768311 55.37905708 37.9375 52.5625 C36.97191162 52.27665039 36.00632324 51.99080078 35.01147461 51.69628906 C10.78653535 44.79440812 -19.03539979 42.60159782 -42.375 53.78515625 C-51.05111591 58.62673879 -56.53566004 64.91785309 -59.5625 74.4375 C-61.9725897 84.97504548 -59.99331894 95.7678282 -54.9765625 105.21875 C-48.11279336 115.98842092 -36.76462332 122.34162851 -25.625 128 C-24.4896582 128.58370361 -23.35431641 129.16740723 -22.18457031 129.76879883 C-9.93331651 135.98691379 2.7197707 141.29467691 15.35150146 146.68092346 C46.53240197 159.98252473 81.17868293 175.01104374 95.96875 207.8359375 C105.58227183 231.81384951 104.70846344 259.67889538 94.6015625 283.39941406 C90.13354598 293.27946387 84.17297765 300.90738901 76.4375 308.4375 C75.76976562 309.10265625 75.10203125 309.7678125 74.4140625 310.453125 C56.24459107 327.47262988 30.50807802 334.29620533 6.4375 337.4375 C5.75349121 337.53321289 5.06948242 337.62892578 4.36474609 337.72753906 C-4.72795513 338.83172345 -13.91735107 338.68142027 -23.0625 338.6875 C-23.97334351 338.68817474 -24.88418701 338.68884949 -25.82263184 338.68954468 C-58.19317018 338.65154775 -90.02353981 334.74547725 -118.5625 318.4375 C-118.5625 301.9375 -118.5625 285.4375 -118.5625 268.4375 C-113.81970269 269.38605946 -110.06302103 270.96297572 -105.75 273 C-87.77903646 281.19352205 -68.92988366 286.70455757 -49.5625 290.4375 C-48.31082031 290.68371094 -47.05914063 290.92992187 -45.76953125 291.18359375 C-21.6512735 295.1351727 11.06421237 295.25357851 32 280.5625 C33.17739554 279.55664553 34.32441538 278.51409004 35.4375 277.4375 C36.06011719 276.85355469 36.68273438 276.26960938 37.32421875 275.66796875 C45.60442623 267.14473632 47.80495948 255.91850961 47.6484375 244.3671875 C46.83309278 233.04295526 42.07161357 223.58331546 33.875 215.8125 C19.22438019 203.38563498 0.58418206 195.14698147 -16.91763306 187.54910278 C-20.84434491 185.84234862 -24.75966689 184.10980579 -28.67578125 182.37890625 C-29.4449437 182.03929367 -30.21410614 181.69968109 -31.00657654 181.34977722 C-62.40030979 167.46296498 -94.28795359 152.62129004 -108.875 119.453125 C-116.75234739 98.94885312 -116.59330528 73.35849995 -107.76171875 53.23828125 C-104.24133942 45.62938215 -100.21272199 38.68049082 -94.5625 32.4375 C-94.005625 31.78910156 -93.44875 31.14070313 -92.875 30.47265625 C-69.88585238 5.45213998 -32.23542602 -0.23290533 0 0 Z " fill="#009FE3" transform="translate(1475.5625,1264.5625)"/>
<path d="M0 0 C10.56 0 21.12 0 32 0 C32 24.75 32 49.5 32 75 C59.06 75 86.12 75 114 75 C114 88.53 114 102.06 114 116 C86.94 116 59.88 116 32 116 C32.08560803 141.2616774 32.17928656 166.52328335 32.28752708 191.78487301 C32.33753513 203.51566721 32.3839789 215.24645483 32.421875 226.97729492 C32.45493497 237.20824588 32.49484235 247.43914397 32.54279006 257.67003638 C32.56791654 263.0814177 32.58973782 268.49276458 32.60334396 273.90418816 C32.61629116 279.01034933 32.63847829 284.11639152 32.66738319 289.2224865 C32.67636108 291.08428653 32.68212591 292.94610567 32.68421364 294.80792618 C32.3059306 324.34844941 32.3059306 324.34844941 44.3515625 350.359375 C52.64629638 358.61479734 61.08877062 361.23809897 72.75 361.375 C84.89207746 361.29135768 97.67611494 359.97835918 109.43359375 356.8984375 C113 356 113 356 117 356 C117 369.86 117 383.72 117 398 C100.06153846 403.64615385 100.06153846 403.64615385 94.125 404.75 C92.97257812 404.97171875 91.82015625 405.1934375 90.6328125 405.421875 C64.30206103 409.61214513 32.91101951 409.45533858 10 394 C-10.07495208 377.98543395 -18.49565048 355.85005322 -22 331 C-22.09063437 330.37189989 -22.18126875 329.74379978 -22.27464962 329.09666634 C-23.40290878 319.78928416 -23.13185746 310.4046387 -23.11352539 301.04638672 C-23.11324301 299.02523297 -23.11340225 297.00407911 -23.1139679 294.98292542 C-23.11425388 289.51880676 -23.10838935 284.05471021 -23.10139394 278.59059668 C-23.09512722 272.87176979 -23.09455398 267.15294234 -23.09336853 261.43411255 C-23.09026499 250.6148627 -23.08206478 239.795623 -23.07201904 228.97637761 C-23.06082755 216.654737 -23.05533981 204.33309591 -23.05032361 192.01145148 C-23.03988134 166.67429407 -23.02154802 141.33715057 -23 116 C-38.18 116 -53.36 116 -69 116 C-69 107.75 -69 99.5 -69 91 C-66.40125 89.618125 -63.8025 88.23625 -61.125 86.8125 C-60.22982666 86.33337158 -59.33465332 85.85424316 -58.41235352 85.3605957 C-53.36736246 82.68631678 -48.27876583 80.17706809 -43.08984375 77.79296875 C-41.3426001 76.97252075 -41.3426001 76.97252075 -39.56005859 76.13549805 C-37.26416594 75.06191262 -34.95595852 74.01420323 -32.63525391 72.99536133 C-31.03883057 72.23968872 -31.03883057 72.23968872 -29.41015625 71.46875 C-28.46277588 71.04013672 -27.51539551 70.61152344 -26.53930664 70.16992188 C-22.64207911 66.8396115 -21.60347556 62.77589152 -20 58 C-19.64785934 56.99666626 -19.29571869 55.99333252 -18.9329071 54.95959473 C-17.76165812 51.59508423 -16.6221579 48.22103045 -15.48828125 44.84375 C-14.85635148 42.97392028 -14.22442027 41.10409104 -13.59240246 39.23429108 C-12.71857163 36.64691232 -11.84724386 34.05869367 -10.97595215 31.47045898 C-9.43914182 26.90611816 -7.89970247 22.34266543 -6.35820007 17.77990723 C-5.53975552 15.35652408 -4.72282634 12.93262853 -3.907547 10.50817871 C-3.35643501 8.87507751 -3.35643501 8.87507751 -2.79418945 7.20898438 C-2.47094193 6.24875366 -2.1476944 5.28852295 -1.81465149 4.29919434 C-1 2 -1 2 0 0 Z " fill="#009FE3" transform="translate(1683,1196)"/>
<path d="M0 0 C10.56 0 21.12 0 32 0 C32 24.75 32 49.5 32 75 C59.06 75 86.12 75 114 75 C114 88.53 114 102.06 114 116 C86.94 116 59.88 116 32 116 C32.06301098 141.61831446 32.13830776 167.23649825 32.23571491 192.85470295 C32.28056048 204.75135216 32.32000072 216.64797219 32.34643555 228.54467773 C32.36950701 238.92142777 32.40300616 249.29808457 32.44870156 259.67476052 C32.47251104 265.1622342 32.49131986 270.64961624 32.49761391 276.13714027 C32.50372079 281.31722287 32.52391937 286.49707138 32.55427551 291.6770668 C32.56296692 293.56382424 32.56679714 295.45061239 32.56500816 297.33738899 C32.54433987 327.05085354 32.54433987 327.05085354 46.26171875 352.38671875 C55.04233709 360.53592184 65.65017312 361.62240325 77.1875 361.296875 C90.21087434 360.65334143 103.17267918 358.1378868 116 356 C116 369.86 116 383.72 116 398 C109.03012063 400.78795175 103.09743621 402.86468904 95.875 404.1875 C94.61236328 404.4340332 94.61236328 404.4340332 93.32421875 404.68554688 C64.90979276 410.12613852 33.31897921 409.44209547 8.59765625 392.9375 C-5.95273729 382.08487564 -14.08382177 365.9003579 -18.75 348.6875 C-18.94867676 347.96626953 -19.14735352 347.24503906 -19.35205078 346.50195312 C-23.07062425 331.8825743 -23.28583474 317.15870865 -23.22705078 302.18164062 C-23.22648531 300.13989772 -23.22680587 298.09815441 -23.22793579 296.05641174 C-23.22850502 290.56369629 -23.21682102 285.07106981 -23.20278788 279.57837486 C-23.19020815 273.8195479 -23.18910434 268.06071846 -23.18673706 262.30187988 C-23.18054344 251.4190665 -23.16416153 240.53629374 -23.14403808 229.65349817 C-23.12161283 217.25433608 -23.11066905 204.85517196 -23.10064721 192.45599461 C-23.07979324 166.97063543 -23.04314373 141.48533186 -23 116 C-38.18 116 -53.36 116 -69 116 C-69 107.75 -69 99.5 -69 91 C-66.40125 89.618125 -63.8025 88.23625 -61.125 86.8125 C-59.77136353 86.06117798 -59.77136353 86.06117798 -58.39038086 85.29467773 C-53.49633012 82.61738082 -48.76793925 80.52170948 -43.44140625 78.84765625 C-34.56582207 75.77724297 -26.20110519 72.56171789 -21.62304688 63.9375 C-17.0322298 54.0692752 -14.19874134 43.47090451 -11.37695312 32.99072266 C-9.45954005 25.90849477 -7.06517899 19.00014403 -4.6875 12.0625 C-3.6935599 9.02868766 -2.70278826 5.99391707 -1.7175293 2.95727539 C-1 1 -1 1 0 0 Z " fill="#009FE3" transform="translate(878,1196)"/>
<path d="M0 0 C39.6 0 79.2 0 120 0 C120 66.33 120 132.66 120 201 C80.4 201 40.8 201 0 201 C0 134.67 0 68.34 0 0 Z " fill="#DE2714" transform="translate(1176,379)"/>
<path d="M0 0 C39.6 0 79.2 0 120 0 C120 9.24 120 18.48 120 28 C80.4 28 40.8 28 0 28 C0 18.76 0 9.52 0 0 Z " fill="#DE2714" transform="translate(1176,233)"/>
<path d="M0 0 C39.6 0 79.2 0 120 0 C120 9.24 120 18.48 120 28 C80.4 28 40.8 28 0 28 C0 18.76 0 9.52 0 0 Z " fill="#F07D15" transform="translate(1024,233)"/>
<path d="M0 0 C39.6 0 79.2 0 120 0 C120 9.24 120 18.48 120 28 C80.4 28 40.8 28 0 28 C0 18.76 0 9.52 0 0 Z " fill="#C7D302" transform="translate(871,233)"/>
<path d="M0 0 C39.27 0 78.54 0 119 0 C119 9.24 119 18.48 119 28 C79.73 28 40.46 28 0 28 C0 18.76 0 9.52 0 0 Z " fill="#009FE3" transform="translate(717,233)"/>
</svg>
